<?xml version="1.0" encoding="UTF-8"?>
<svg version="1.1" xmlns="http://www.w3.org/2000/svg" width="25" height="25">
<path d="M0 0 C3.85544798 1.99657127 5.59805092 3.39707638 8 7 C8.74426249 12.02809889 8.53541366 15.96609776 6.1875 20.5 C3.89172611 23.12374158 2.25432101 24.81433458 -1.26953125 25.3359375 C-7.04667069 25.42468004 -10.46993355 24.96380815 -15 21 C-17.83500922 16.74748617 -17.64456329 12.99342406 -17 8 C-12.95857887 0.19587645 -8.28878156 -1.06993603 0 0 Z " fill="#070707" transform="translate(17,0)"/>
<path d="M0 0 C0 3.63 0 7.26 0 11 C0.99 11 1.98 11 3 11 C3 10.01 3 9.02 3 8 C2.34 8 1.68 8 1 8 C1 7.01 1 6.02 1 5 C2.32 5.33 3.64 5.66 5 6 C5.625 8.375 5.625 8.375 6 11 C4 13 4 13 1.5 13.25 C-1 13 -1 13 -3 11 C-3.625 8.375 -3.625 8.375 -4 6 C-4.66 6 -5.32 6 -6 6 C-6 3 -6 3 -4.6875 1.3125 C-3 0 -3 0 0 0 Z " fill="#C5C5C5" transform="translate(12,3)"/>
<path d="M0 0 C1.32 0.33 2.64 0.66 4 1 C4.625 3.375 4.625 3.375 5 6 C3 8 3 8 0.375 8.125 C-0.40875 8.08375 -1.1925 8.0425 -2 8 C-2 7.34 -2 6.68 -2 6 C-0.68 6 0.64 6 2 6 C2 5.01 2 4.02 2 3 C1.34 3 0.68 3 0 3 C0 2.01 0 1.02 0 0 Z " fill="#DCDCDC" transform="translate(13,8)"/>
<path d="M0 0 C2.64 0 5.28 0 8 0 C7.67 1.32 7.34 2.64 7 4 C5.02 4 3.04 4 1 4 C0.67 2.68 0.34 1.36 0 0 Z " fill="#797979" transform="translate(11,18)"/>
</svg>
