<?xml version="1.0" encoding="UTF-8"?>
<svg version="1.1" xmlns="http://www.w3.org/2000/svg" width="22" height="16">
<path d="M0 0 C0.89460937 -0.00128906 1.78921875 -0.00257812 2.7109375 -0.00390625 C3.65195313 -0.00003906 4.59296875 0.00382812 5.5625 0.0078125 C6.97402344 0.00201172 6.97402344 0.00201172 8.4140625 -0.00390625 C9.75597656 -0.00197266 9.75597656 -0.00197266 11.125 0 C11.95128906 0.00112793 12.77757813 0.00225586 13.62890625 0.00341797 C15.5625 0.1328125 15.5625 0.1328125 16.5625 1.1328125 C16.66159302 3.46441305 16.69220504 5.79911192 16.6875 8.1328125 C16.69136719 10.0509375 16.69136719 10.0509375 16.6953125 12.0078125 C16.5625 15.1328125 16.5625 15.1328125 15.5625 16.1328125 C14.08597336 16.23162047 12.60482764 16.26360495 11.125 16.265625 C9.78308594 16.26755859 9.78308594 16.26755859 8.4140625 16.26953125 C7.47304687 16.26566406 6.53203125 16.26179688 5.5625 16.2578125 C4.15097656 16.26361328 4.15097656 16.26361328 2.7109375 16.26953125 C1.81632813 16.26824219 0.92171875 16.26695313 0 16.265625 C-0.82628906 16.26449707 -1.65257812 16.26336914 -2.50390625 16.26220703 C-4.4375 16.1328125 -4.4375 16.1328125 -5.4375 15.1328125 C-5.53659302 12.80121195 -5.56720504 10.46651308 -5.5625 8.1328125 C-5.56507813 6.8540625 -5.56765625 5.5753125 -5.5703125 4.2578125 C-5.36940424 -0.46944066 -4.30363567 0.0058747 0 0 Z M3.5625 6.1328125 C3.5625 7.4528125 3.5625 8.7728125 3.5625 10.1328125 C4.8825 9.8028125 6.2025 9.4728125 7.5625 9.1328125 C7.5625 8.4728125 7.5625 7.8128125 7.5625 7.1328125 C6.2425 6.8028125 4.9225 6.4728125 3.5625 6.1328125 Z " fill="#000000" transform="translate(5.4375,-0.1328125)"/>
</svg>
