<?xml version="1.0" encoding="UTF-8"?>
<svg version="1.1" xmlns="http://www.w3.org/2000/svg" width="50" height="50">
<path d="M0 0 C6.21022081 3.77380156 11.12756342 9.38269026 13.4375 16.3125 C14.06027571 24.34732765 14.41847862 31.64415403 9.4375 38.3125 C4.85388456 43.61984419 -0.46283458 47.99473686 -7.63671875 48.55078125 C-16.8461929 48.73994883 -22.33912774 47.95995786 -29.3125 41.9375 C-35.62744532 34.57006379 -36.92244811 29.37808317 -36.84375 19.8359375 C-36.26602578 12.59833686 -33.0249729 7.99461963 -27.5625 3.3125 C-19.66584559 -2.37309117 -9.18150824 -4.36209587 0 0 Z " fill="#D0E4CB" transform="translate(36.5625,1.6875)"/>
<path d="M0 0 C4.16182905 2.93219774 7.2148407 6.03451322 8.1640625 11.18359375 C8.40748547 17.74494916 6.56489858 21.85036663 2.25 26.8125 C-1.41012217 29.63994438 -5.13825503 29.57664548 -9.625 29.36328125 C-14.31331547 28.60282532 -17.0050504 26.35416679 -20.0625 22.875 C-22.75896422 18.47550575 -22.85840848 13.94187398 -22.25 8.9375 C-17.55337193 -0.63639568 -9.71663088 -3.17659086 0 0 Z " fill="#ABC4AA" transform="translate(32.25,11.0625)"/>
<path d="M0 0 C4.16182905 2.93219774 7.2148407 6.03451322 8.1640625 11.18359375 C8.40748547 17.74494916 6.56489858 21.85036663 2.25 26.8125 C-1.41012217 29.63994438 -5.13825503 29.57664548 -9.625 29.36328125 C-14.31331547 28.60282532 -17.0050504 26.35416679 -20.0625 22.875 C-22.75896422 18.47550575 -22.85840848 13.94187398 -22.25 8.9375 C-17.55337193 -0.63639568 -9.71663088 -3.17659086 0 0 Z M-18.625 6.625 C-20.73889026 10.93408398 -20.78757839 13.17609139 -20.25 17.9375 C-19.10302042 20.24473357 -19.10302042 20.24473357 -17.25 21.9375 C-16.2290625 23.0203125 -16.2290625 23.0203125 -15.1875 24.125 C-12.04581718 27.06399361 -9.64053103 27.2849633 -5.34765625 27.21484375 C-1.84096486 26.75120299 0.13925777 25.24466755 2.75 22.9375 C5.660372 18.571942 6.4006249 15.14249921 5.75 9.9375 C3.72333762 6.23359979 2.26955484 4.28386989 -1.25 1.9375 C-2.24 1.9375 -3.23 1.9375 -4.25 1.9375 C-4.58 2.9275 -4.91 3.9175 -5.25 4.9375 C-5.91 4.9375 -6.57 4.9375 -7.25 4.9375 C-6.59 3.6175 -5.93 2.2975 -5.25 0.9375 C-11.0633898 0.42455384 -14.79162174 2.28722986 -18.625 6.625 Z " fill="#134224" transform="translate(32.25,11.0625)"/>
<path d="M0 0 C-0.66 1.32 -1.32 2.64 -2 4 C-1.34 4 -0.68 4 0 4 C0.33 3.01 0.66 2.02 1 1 C5.25491665 1.47276852 7.22542845 3.92547477 10 7 C11.4783226 9.95664519 11.06032783 12.74229737 11 16 C10.67 16 10.34 16 10 16 C9.67 14.35 9.34 12.7 9 11 C8.01 10.67 7.02 10.34 6 10 C6.66 9.34 7.32 8.68 8 8 C7.34 7.01 6.68 6.02 6 5 C5.01 5.33 4.02 5.66 3 6 C2.67 6.99 2.34 7.98 2 9 C2.99 9 3.98 9 5 9 C4.67 10.98 4.34 12.96 4 15 C2.45428722 12.68143083 1.20381448 10.49361571 0 8 C-2.16874252 8.50603992 -3.99967627 8.99983813 -6 10 C-6.33 7.03 -6.66 4.06 -7 1 C-4.53721199 -0.231394 -2.7204945 -0.07159196 0 0 Z " fill="#B3CCB1" transform="translate(27,12)"/>
<path d="M0 0 C0.804375 0.495 1.60875 0.99 2.4375 1.5 C1.4475 2.16 0.4575 2.82 -0.5625 3.5 C-1.8825 2.84 -3.2025 2.18 -4.5625 1.5 C-4.8925 2.82 -5.2225 4.14 -5.5625 5.5 C-7.2125 5.5 -8.8625 5.5 -10.5625 5.5 C-9.5725 5.17 -8.5825 4.84 -7.5625 4.5 C-7.2325 3.51 -6.9025 2.52 -6.5625 1.5 C-10.78353559 1.74829621 -12.99556529 2.01217245 -16.25 4.8125 C-17.3946875 6.1428125 -17.3946875 6.1428125 -18.5625 7.5 C-19.89583333 8.83333333 -21.22916667 10.16666667 -22.5625 11.5 C-22.12812648 6.57710011 -19.918881 4.01249175 -16.5625 0.5 C-11.24207649 -2.74710383 -5.60077445 -2.35822082 0 0 Z " fill="#1F4C2D" transform="translate(32.5625,11.5)"/>
<path d="M0 0 C2 2 2 2 2.125 5.625 C2.08375 6.73875 2.0425 7.8525 2 9 C1.01 9.33 0.02 9.66 -1 10 C-1 11.65 -1 13.3 -1 15 C-2.65 14.67 -4.3 14.34 -6 14 C-5.67 12.35 -5.34 10.7 -5 9 C-5.66 8.67 -6.32 8.34 -7 8 C-3.375 2.25 -3.375 2.25 0 0 Z " fill="#8AA88C" transform="translate(19,13)"/>
<path d="M0 0 C1.875 0.8125 1.875 0.8125 2.875 2.8125 C2.914992 4.81210012 2.91846799 6.81297242 2.875 8.8125 C0.5625 9.4375 0.5625 9.4375 -2.125 9.8125 C-3.115 9.1525 -4.105 8.4925 -5.125 7.8125 C-5.57503816 4.88725195 -5.52959532 3.41939298 -3.875 0.9375 C-2.125 -0.1875 -2.125 -0.1875 0 0 Z " fill="#1C492B" transform="translate(26.125,19.1875)"/>
<path d="M0 0 C2.375 0.25 2.375 0.25 5 1 C7 4.04761905 7 4.04761905 7 6 C7.33 6.33 7.66 6.66 8 7 C8.04063832 8.66617115 8.042721 10.33388095 8 12 C6.02 12 4.04 12 2 12 C2.33 9.69 2.66 7.38 3 5 C2.01 5 1.02 5 0 5 C-0.33 4.01 -0.66 3.02 -1 2 C-0.67 1.34 -0.34 0.68 0 0 Z " fill="#41694B" transform="translate(29,16)"/>
<path d="M0 0 C0.66 0 1.32 0 2 0 C2 1.65 2 3.3 2 5 C3.32 5.33 4.64 5.66 6 6 C5.67 4.02 5.34 2.04 5 0 C6.32 0 7.64 0 9 0 C9.309375 0.94875 9.61875 1.8975 9.9375 2.875 C10.87394742 5.86080408 10.87394742 5.86080408 12 8 C11.67 8.66 11.34 9.32 11 10 C10.01 10 9.02 10 8 10 C7 9 7 9 6 7 C5.34 7 4.68 7 4 7 C3.34 8.32 2.68 9.64 2 11 C-0.32590854 7.36576791 -0.16265833 4.22911669 0 0 Z " fill="#ADC6AC" transform="translate(12,22)"/>
<path d="M0 0 C0.66 0 1.32 0 2 0 C2 0.66 2 1.32 2 2 C3.65 2 5.3 2 7 2 C6.67 3.65 6.34 5.3 6 7 C1.30976546 6.43393721 -3.34500026 5.81462495 -8 5 C-8 3.68 -8 2.36 -8 1 C-6.35 1 -4.7 1 -3 1 C-3.33 1.99 -3.66 2.98 -4 4 C-3.01 4 -2.02 4 -1 4 C-0.67 2.68 -0.34 1.36 0 0 Z " fill="#6F9073" transform="translate(24,28)"/>
<path d="M0 0 C0.33 0 0.66 0 1 0 C1.66 2.97 2.32 5.94 3 9 C3.66 9 4.32 9 5 9 C5 9.66 5 10.32 5 11 C5.99 11.33 6.98 11.66 8 12 C7.01 12.495 7.01 12.495 6 13 C6.99 13.99 7.98 14.98 9 16 C8.34 16.33 7.68 16.66 7 17 C0.171875 11.8046875 0.171875 11.8046875 -1 7 C-1.1875 3.75 -1.1875 3.75 -1 1 C-0.67 0.67 -0.34 0.34 0 0 Z " fill="#134323" transform="translate(11,22)"/>
<path d="M0 0 C0.33 0.99 0.66 1.98 1 3 C1.99 3.33 2.98 3.66 4 4 C4 4.33 4 4.66 4 5 C-1.39449293 5.27429625 -4.51925805 5.36055646 -9 2 C-5.5647952 -0.29013653 -4.014669 -0.17842973 0 0 Z " fill="#9AB69B" transform="translate(25,33)"/>
<path d="M0 0 C2.375 0.25 2.375 0.25 5 1 C6.3125 3.0625 6.3125 3.0625 7 5 C5.02 5.99 5.02 5.99 3 7 C3 6.34 3 5.68 3 5 C2.01 5 1.02 5 0 5 C-0.33 4.01 -0.66 3.02 -1 2 C-0.67 1.34 -0.34 0.68 0 0 Z " fill="#5D8265" transform="translate(29,16)"/>
<path d="M0 0 C3.465 1.485 3.465 1.485 7 3 C6.01 3.66 5.02 4.32 4 5 C2.68 4.34 1.36 3.68 0 3 C-0.33 4.32 -0.66 5.64 -1 7 C-2.65 7 -4.3 7 -6 7 C-5.01 6.67 -4.02 6.34 -3 6 C-1.84478498 3.52869082 -1.84478498 3.52869082 -1 1 C-0.67 0.67 -0.34 0.34 0 0 Z " fill="#446C4E" transform="translate(28,10)"/>
<path d="M0 0 C6.91729323 4.21052632 6.91729323 4.21052632 8 8 C8.0777346 10.33203812 8.08967728 12.66839059 8 15 C7.67 15 7.34 15 7 15 C6.67 13.35 6.34 11.7 6 10 C5.01 9.67 4.02 9.34 3 9 C3.66 8.34 4.32 7.68 5 7 C3.27773504 3.75150023 3.27773504 3.75150023 0 3 C0 2.01 0 1.02 0 0 Z " fill="#A7C1A7" transform="translate(30,13)"/>
<path d="M0 0 C1.60379341 -0.05416188 3.20811406 -0.09286638 4.8125 -0.125 C5.70582031 -0.14820313 6.59914063 -0.17140625 7.51953125 -0.1953125 C10 0 10 0 13 2 C10.35541621 3.32229189 8.32238699 3.09677194 5.375 3.0625 C4.37210938 3.05347656 3.36921875 3.04445312 2.3359375 3.03515625 C1.56507812 3.02355469 0.79421875 3.01195312 0 3 C0 2.01 0 1.02 0 0 Z " fill="#2D5639" transform="translate(20,37)"/>
<path d="M0 0 C0.99 0.33 1.98 0.66 3 1 C3.33 2.65 3.66 4.3 4 6 C-0.75 7.125 -0.75 7.125 -3 6 C-3 5.34 -3 4.68 -3 4 C-2.34 3.67 -1.68 3.34 -1 3 C-0.67 2.01 -0.34 1.02 0 0 Z " fill="#436B4D" transform="translate(25,22)"/>
<path d="M0 0 C1.65 0 3.3 0 5 0 C5 1.65 5 3.3 5 5 C3.35 5 1.7 5 0 5 C0 3.35 0 1.7 0 0 Z " fill="#2B5739" transform="translate(16,17)"/>
<path d="M0 0 C0.66 0 1.32 0 2 0 C2 1.65 2 3.3 2 5 C3.32 5.66 4.64 6.32 6 7 C5.34 7 4.68 7 4 7 C3.34 8.32 2.68 9.64 2 11 C-0.32590854 7.36576791 -0.16265833 4.22911669 0 0 Z " fill="#B5CEB4" transform="translate(12,22)"/>
<path d="M0 0 C0.66 0.33 1.32 0.66 2 1 C2 2.65 2 4.3 2 6 C-0.375 6.625 -0.375 6.625 -3 7 C-3.66 6.34 -4.32 5.68 -5 5 C-3.68 4.67 -2.36 4.34 -1 4 C-0.67 2.68 -0.34 1.36 0 0 Z " fill="#A3BFA4" transform="translate(31,30)"/>
<path d="M0 0 C1.32 0 2.64 0 4 0 C4 1.65 4 3.3 4 5 C2.35 4.67 0.7 4.34 -1 4 C-0.67 2.68 -0.34 1.36 0 0 Z " fill="#436B4D" transform="translate(14,23)"/>
<path d="M0 0 C1.8125 0.1875 1.8125 0.1875 4 1 C5.8125 3.4375 5.8125 3.4375 7 6 C6.67 6.66 6.34 7.32 6 8 C3.38472619 5.63379989 1.73559438 3.057952 0 0 Z " fill="#194728" transform="translate(33,14)"/>
</svg>
